<?xml version="1.0" encoding="UTF-8"?>
<svg version="1.1" xmlns="http://www.w3.org/2000/svg" width="634" height="638">
<path d="M0 0 C1.78479012 -0.0099852 1.78479012 -0.0099852 3.6056366 -0.02017212 C6.11069207 -0.03022933 8.61577397 -0.03499131 11.12084961 -0.03466797 C14.87075378 -0.03900786 18.61944635 -0.07531341 22.36914062 -0.11328125 C85.72645701 -0.40791177 143.44514615 26.82822084 188.07937622 70.9473877 C198.60593976 81.39690154 208.06677416 91.80596279 216.10546875 104.3359375 C216.90754187 105.53040552 217.7121427 106.72318095 218.51953125 107.9140625 C236.99402077 135.48122061 249.57127736 166.57629653 255.10546875 199.3359375 C255.36710815 200.65839478 255.36710815 200.65839478 255.6340332 202.00756836 C257.69989548 213.81025088 257.51346247 225.74216017 257.53100586 237.68920898 C257.54280177 241.46991746 257.59200886 245.24893602 257.64257812 249.02929688 C257.88804982 286.1189653 247.89257983 322.78521649 230.10546875 355.3359375 C229.69425781 356.09116699 229.28304688 356.84639648 228.859375 357.62451172 C222.71075426 368.81107876 215.96106075 379.27736427 208.10546875 389.3359375 C207.56954102 390.0462915 207.03361328 390.75664551 206.48144531 391.48852539 C200.33286414 399.45966345 193.33801086 406.54237516 186.23046875 413.6484375 C185.58818329 414.2921228 184.94589783 414.93580811 184.28414917 415.59899902 C174.56370831 425.30205361 164.7548216 433.99067948 153.10546875 441.3359375 C151.84438687 442.16890421 150.58523552 443.00480174 149.328125 443.84375 C145.9596068 446.07467639 142.54385057 448.21420433 139.10546875 450.3359375 C138.1721875 450.92632813 137.23890625 451.51671875 136.27734375 452.125 C112.68422977 466.55765911 85.2286419 475.59187907 58.10546875 480.3359375 C57.17750488 480.51922607 56.24954102 480.70251465 55.29345703 480.89135742 C43.6961367 482.9128009 31.97278192 482.74387924 20.234375 482.76147461 C16.5370631 482.77325715 12.84148705 482.82245436 9.14453125 482.87304688 C-40.53408303 483.21149482 -91.05678932 465.59016639 -130.10571289 434.74755859 C-131.4008428 433.72552486 -132.70911652 432.72007482 -134.02514648 431.72509766 C-142.00462774 425.57147828 -149.09416066 418.57528927 -156.20703125 411.4609375 C-156.85071655 410.81865204 -157.49440186 410.17636658 -158.15759277 409.51461792 C-167.86064736 399.79417706 -176.54927323 389.98529035 -183.89453125 378.3359375 C-184.72749796 377.07485562 -185.56339549 375.81570427 -186.40234375 374.55859375 C-188.63334887 371.19017804 -190.77211444 367.77383244 -192.89453125 364.3359375 C-193.47332031 363.42585938 -194.05210937 362.51578125 -194.6484375 361.578125 C-209.08199825 338.0691699 -218.49155437 310.50726404 -222.89453125 283.3359375 C-223.06460693 282.32233154 -223.23468262 281.30872559 -223.40991211 280.2644043 C-224.84007873 271.141508 -225.36565388 262.11076553 -225.58203125 252.8984375 C-225.61047623 251.78751236 -225.61047623 251.78751236 -225.63949585 250.65414429 C-227.06508099 193.31454035 -211.59809846 138.87508043 -175.89453125 93.3359375 C-175.36150391 92.62993408 -174.82847656 91.92393066 -174.27929688 91.1965332 C-168.12746994 83.22052323 -161.13118147 76.1336071 -154.01953125 69.0234375 C-153.37724579 68.3797522 -152.73496033 67.73606689 -152.07321167 67.07287598 C-142.35277081 57.36982139 -132.5438841 48.68119552 -120.89453125 41.3359375 C-119.63344937 40.50297079 -118.37429802 39.66707326 -117.1171875 38.828125 C-113.74907252 36.59687308 -110.33068922 34.46087445 -106.89453125 32.3359375 C-106.01925781 31.76875 -105.14398438 31.2015625 -104.2421875 30.6171875 C-74.25941962 11.94950236 -35.34392735 0.07122575 0 0 Z M-46.89453125 32.3359375 C-48.38339844 32.77679688 -48.38339844 32.77679688 -49.90234375 33.2265625 C-65.56033133 38.02427457 -80.70546759 45.20932601 -94.89453125 53.3359375 C-95.98894531 53.95984375 -97.08335937 54.58375 -98.2109375 55.2265625 C-111.3610379 63.01218151 -122.90569723 72.76366522 -133.89453125 83.3359375 C-134.52149902 83.93567383 -135.1484668 84.53541016 -135.79443359 85.15332031 C-147.61424359 96.51841224 -158.21115769 108.36605413 -166.89453125 122.3359375 C-167.55710938 123.37363281 -168.2196875 124.41132813 -168.90234375 125.48046875 C-178.11659094 140.16529247 -185.51346972 155.86033212 -190.89453125 172.3359375 C-191.41080078 173.73005859 -191.41080078 173.73005859 -191.9375 175.15234375 C-203.70405623 207.56672663 -203.98751093 243.68613222 -198.89453125 277.3359375 C-198.72824219 278.53734375 -198.56195313 279.73875 -198.390625 280.9765625 C-194.80202025 305.15923237 -185.58158761 329.65224882 -172.97949219 350.53369141 C-171.94507372 352.25198059 -170.93856449 353.9869797 -169.93359375 355.72265625 C-161.912993 369.29220323 -151.79360413 381.02064781 -140.89453125 392.3359375 C-140.31155273 392.94614746 -139.72857422 393.55635742 -139.12792969 394.18505859 C-128.10064136 405.67890861 -116.46232324 415.90249514 -102.89453125 424.3359375 C-101.85683594 424.99851562 -100.81914062 425.66109375 -99.75 426.34375 C-85.07460563 435.55208058 -69.37240414 442.98731459 -52.89453125 448.3359375 C-51.36119141 448.86960937 -51.36119141 448.86960937 -49.796875 449.4140625 C-36.03358967 454.17349536 -22.29898779 456.5221771 -7.89453125 458.3359375 C-6.84652344 458.47128906 -5.79851562 458.60664062 -4.71875 458.74609375 C23.30672733 461.69395877 52.15428159 458.25380039 79.10546875 450.3359375 C80.05035156 450.06265625 80.99523437 449.789375 81.96875 449.5078125 C97.67184702 444.62141739 112.8531986 437.49874973 127.10546875 429.3359375 C128.19988281 428.71203125 129.29429687 428.088125 130.421875 427.4453125 C143.5719754 419.65969349 155.11663473 409.90820978 166.10546875 399.3359375 C167.04592041 398.43633301 167.04592041 398.43633301 168.00537109 397.51855469 C179.81540233 386.16286533 190.45636934 374.31606749 199.10546875 360.3359375 C199.61956299 359.50642578 199.61956299 359.50642578 200.14404297 358.66015625 C201.32639707 356.74418798 202.49902461 354.82261452 203.66796875 352.8984375 C204.03229004 352.30168213 204.39661133 351.70492676 204.77197266 351.09008789 C214.77874202 334.40839447 222.19469539 316.12159431 227.10546875 297.3359375 C227.3890625 296.34078125 227.67265625 295.345625 227.96484375 294.3203125 C241.74026587 243.99785211 234.43225901 183.3246757 208.60546875 137.8984375 C207.48202464 135.96891447 206.34409383 134.04978406 205.19042969 132.13818359 C204.15601122 130.41989441 203.14950199 128.6848953 202.14453125 126.94921875 C194.12253881 113.37731725 183.99985656 101.65866302 173.10546875 90.3359375 C172.27958252 89.4692041 172.27958252 89.4692041 171.43701172 88.58496094 C163.21974177 79.99471185 154.59264141 72.48463721 145.10546875 65.3359375 C143.8834375 64.32660156 143.8834375 64.32660156 142.63671875 63.296875 C139.62566372 60.96423669 136.4445579 59.01399412 133.16796875 57.0859375 C132.17518921 56.50005859 132.17518921 56.50005859 131.16235352 55.90234375 C129.79697734 55.0980521 128.43068414 54.29531515 127.06347656 53.49414062 C125.29181831 52.44616721 123.53736205 51.36924584 121.78515625 50.2890625 C111.41117787 44.03967793 100.41531221 39.59862651 89.10546875 35.3359375 C88.33138672 35.03913086 87.55730469 34.74232422 86.75976562 34.43652344 C45.71610367 19.01328401 -5.43199555 18.60425901 -46.89453125 32.3359375 Z " fill="#FFFFFF" transform="translate(299.89453125,78.6640625)"/>
<path d="M0 0 C3.07365786 1.80803404 4.43019732 2.86039464 6 6 C6.72123791 10.9924454 7.15880612 15.87531802 4.68606567 20.40911102 C2.73738568 22.73459101 0.67928735 24.80717783 -1.52734375 26.88964844 C-2.32713654 27.69119354 -3.12692932 28.49273865 -3.95095825 29.318573 C-6.58568932 31.94498376 -9.26024119 34.52638995 -11.9375 37.109375 C-13.77856853 38.92804783 -15.61699466 40.74939915 -17.45288086 42.57330322 C-21.78735224 46.86673393 -26.14746225 51.13240602 -30.5213728 55.38560128 C-35.50269082 60.23240819 -40.44964485 65.11367092 -45.39412498 69.99800825 C-55.55850734 80.03723421 -65.76495382 90.03285137 -76 100 C-74.63939419 103.05537331 -73.11993703 105.10944376 -70.72238159 107.4306488 C-70.04649994 108.09049271 -69.37061829 108.75033661 -68.67425537 109.43017578 C-67.93338684 110.14343018 -67.19251831 110.85668457 -66.42919922 111.59155273 C-64.81144617 113.16663337 -63.19376352 114.7417863 -61.57614136 116.31700134 C-60.71706051 117.15000196 -59.85797966 117.98300259 -58.97286606 118.84124565 C-54.42523225 123.2596343 -49.90866705 127.70965152 -45.38671875 132.15429688 C-39.63176794 137.80740875 -33.86880491 143.45135819 -28.06982422 149.05932617 C-23.38253944 153.59243732 -18.7301484 158.15967667 -14.0966835 162.74778938 C-12.32764778 164.48784416 -10.54697077 166.21614725 -8.7545433 167.93209648 C5.9829803 182.05836101 5.9829803 182.05836101 7.12908936 187.92947388 C7.21993455 192.80487503 6.52154201 195.97623235 4.3125 200.3125 C-1.00937707 203.02364492 -6.15713105 202.98207167 -12 202 C-16.00898881 199.80998304 -18.93730347 196.85486896 -22.10473633 193.59326172 C-23.02347031 192.69891418 -23.94220428 191.80456665 -24.88877869 190.88311768 C-27.3899224 188.4451081 -29.84858952 185.96813342 -32.29945588 183.47970724 C-34.35655374 181.39919469 -36.43420917 179.33985067 -38.51224822 177.28028691 C-43.41795156 172.41805697 -48.29042186 167.52426071 -53.1418457 162.60791016 C-58.13186292 157.5520083 -63.16877885 152.54677491 -68.23256856 147.56484783 C-72.59419005 143.27097107 -76.92774273 138.95016808 -81.23961657 134.60633671 C-83.80836683 132.01871561 -86.38555687 129.44146317 -88.98893166 126.88863754 C-91.89304016 124.0375241 -94.7362396 121.13211574 -97.57739258 118.21826172 C-98.43593842 117.38962616 -99.29448425 116.5609906 -100.17904663 115.70724487 C-104.63033161 111.03670922 -106.61410176 107.51828982 -107.05381775 101 C-106.52004235 93.07369477 -103.11879285 89.13560488 -97.56152344 83.78173828 C-96.66396332 82.86285828 -95.7664032 81.94397827 -94.84164429 80.99725342 C-92.39737636 78.49810573 -89.91162126 76.0446761 -87.41384411 73.59915018 C-84.79521509 71.02369938 -82.21198274 68.41312458 -79.62310791 65.80783081 C-75.27254518 61.44099369 -70.89414751 57.10367433 -66.49804688 52.78271484 C-61.4279725 47.79855949 -56.40608615 42.76951053 -51.40715003 37.71408284 C-46.5801092 32.83484054 -41.71966025 27.99022172 -36.84363556 23.15996933 C-34.77673371 21.11118914 -32.72228507 19.05103218 -30.67717743 16.98050308 C-27.8156483 14.08691189 -24.90703093 11.24561334 -21.99121094 8.40673828 C-20.73747177 7.12127609 -20.73747177 7.12127609 -19.45840454 5.80984497 C-13.36319213 -0.00810845 -8.38529371 -1.55265824 0 0 Z " fill="#FFFFFF" transform="translate(351,229)"/>
<path d="M0 0 C3.07365786 1.80803404 4.43019732 2.86039464 6 6 C6.72123791 10.9924454 7.15880612 15.87531802 4.68606567 20.40911102 C2.73738568 22.73459101 0.67928735 24.80717783 -1.52734375 26.88964844 C-2.32713654 27.69119354 -3.12692932 28.49273865 -3.95095825 29.318573 C-6.58568932 31.94498376 -9.26024119 34.52638995 -11.9375 37.109375 C-13.77856853 38.92804783 -15.61699466 40.74939915 -17.45288086 42.57330322 C-21.78735224 46.86673393 -26.14746225 51.13240602 -30.5213728 55.38560128 C-35.50269082 60.23240819 -40.44964485 65.11367092 -45.39412498 69.99800825 C-55.55850734 80.03723421 -65.76495382 90.03285137 -76 100 C-74.63900141 103.05553548 -73.11753564 105.11320814 -70.72238159 107.43737793 C-69.70855911 108.42931152 -69.70855911 108.42931152 -68.67425537 109.44128418 C-67.93338684 110.15610962 -67.19251831 110.87093506 -66.42919922 111.60742188 C-64.81148047 113.1857981 -63.19379613 114.76420958 -61.57614136 116.34265137 C-60.71706051 117.17727402 -59.85797966 118.01189667 -58.97286606 118.87181091 C-54.42609215 123.29718748 -49.90913365 127.75288301 -45.38671875 132.203125 C-39.63039956 137.86362274 -33.86637676 143.51545057 -28.06982422 149.13476562 C-23.38486225 153.67669371 -18.73202494 158.25010509 -14.0966835 162.84266663 C-12.32677293 164.58542617 -10.54608847 166.31731493 -8.7545433 168.03782654 C-6.24511325 170.4504534 -3.7757707 172.89829276 -1.31201172 175.35742188 C-0.56709473 176.05605347 0.17782227 176.75468506 0.9453125 177.4744873 C5.03142351 181.64354478 6.46077255 184.42525023 6.57418823 190.34094238 C6.40375653 194.18986348 6.11476356 195.80490195 4.125 199.1875 C0.08402357 202.63421519 -3.58478127 202.61132057 -8.78083038 202.54785538 C-14.66021829 201.54726993 -17.94990859 197.73682004 -21.99121094 193.59326172 C-22.90979889 192.69891418 -23.82838684 191.80456665 -24.77481079 190.88311768 C-27.27782884 188.44300282 -29.7416612 185.96664197 -32.19806194 183.47970724 C-34.25888178 181.40050117 -36.33840126 179.34052222 -38.41815972 177.28028691 C-43.32803838 172.41612596 -48.20688597 167.52234651 -53.06640625 162.60791016 C-58.06523526 157.55349244 -63.10941826 152.54799302 -68.17921996 147.56484783 C-72.54494234 143.27087789 -76.88266019 138.94999715 -81.19894624 134.60633671 C-83.77082323 132.01843611 -86.35131906 129.4411478 -88.95836639 126.88863754 C-91.86721141 124.03744327 -94.71536043 121.13203008 -97.56152344 118.21826172 C-98.42164032 117.38962616 -99.2817572 116.5609906 -100.16793823 115.70724487 C-104.62633452 111.03798673 -106.61476881 107.52274651 -107.05480957 101 C-106.5201085 93.0740989 -103.11858816 89.13540768 -97.56152344 83.78173828 C-96.66396332 82.86285828 -95.7664032 81.94397827 -94.84164429 80.99725342 C-92.39737636 78.49810573 -89.91162126 76.0446761 -87.41384411 73.59915018 C-84.79521509 71.02369938 -82.21198274 68.41312458 -79.62310791 65.80783081 C-75.27254518 61.44099369 -70.89414751 57.10367433 -66.49804688 52.78271484 C-61.4279725 47.79855949 -56.40608615 42.76951053 -51.40715003 37.71408284 C-46.5801092 32.83484054 -41.71966025 27.99022172 -36.84363556 23.15996933 C-34.77673371 21.11118914 -32.72228507 19.05103218 -30.67717743 16.98050308 C-27.8156483 14.08691189 -24.90703093 11.24561334 -21.99121094 8.40673828 C-20.73747177 7.12127609 -20.73747177 7.12127609 -19.45840454 5.80984497 C-13.36319213 -0.00810845 -8.38529371 -1.55265824 0 0 Z " fill="#FFFFFF" transform="translate(431,229)"/>
<path d="M0 0 C3.07365786 1.80803404 4.43019732 2.86039464 6 6 C6.72123791 10.9924454 7.15880612 15.87531802 4.68606567 20.40911102 C2.73738568 22.73459101 0.67928735 24.80717783 -1.52734375 26.88964844 C-2.32713654 27.69119354 -3.12692932 28.49273865 -3.95095825 29.318573 C-6.58568932 31.94498376 -9.26024119 34.52638995 -11.9375 37.109375 C-13.77856853 38.92804783 -15.61699466 40.74939915 -17.45288086 42.57330322 C-21.78735224 46.86673393 -26.14746225 51.13240602 -30.5213728 55.38560128 C-35.50269082 60.23240819 -40.44964485 65.11367092 -45.39412498 69.99800825 C-55.55850734 80.03723421 -65.76495382 90.03285137 -76 100 C-74.63900141 103.05553548 -73.11753564 105.11320814 -70.72238159 107.43737793 C-69.70855911 108.42931152 -69.70855911 108.42931152 -68.67425537 109.44128418 C-67.93338684 110.15610962 -67.19251831 110.87093506 -66.42919922 111.60742188 C-64.81148047 113.1857981 -63.19379613 114.76420958 -61.57614136 116.34265137 C-60.71706051 117.17727402 -59.85797966 118.01189667 -58.97286606 118.87181091 C-54.42609215 123.29718748 -49.90913365 127.75288301 -45.38671875 132.203125 C-39.63039956 137.86362274 -33.86637676 143.51545057 -28.06982422 149.13476562 C-23.38486225 153.67669371 -18.73202494 158.25010509 -14.0966835 162.84266663 C-12.32677293 164.58542617 -10.54608847 166.31731493 -8.7545433 168.03782654 C-6.24511325 170.4504534 -3.7757707 172.89829276 -1.31201172 175.35742188 C-0.56709473 176.05605347 0.17782227 176.75468506 0.9453125 177.4744873 C5.03142351 181.64354478 6.46077255 184.42525023 6.57418823 190.34094238 C6.40375653 194.18986348 6.11476356 195.80490195 4.125 199.1875 C0.08402357 202.63421519 -3.58478127 202.61132057 -8.78083038 202.54785538 C-14.66021829 201.54726993 -17.94990859 197.73682004 -21.99121094 193.59326172 C-22.90979889 192.69891418 -23.82838684 191.80456665 -24.77481079 190.88311768 C-27.27782884 188.44300282 -29.7416612 185.96664197 -32.19806194 183.47970724 C-34.25888178 181.40050117 -36.33840126 179.34052222 -38.41815972 177.28028691 C-43.32803838 172.41612596 -48.20688597 167.52234651 -53.06640625 162.60791016 C-58.06523526 157.55349244 -63.10941826 152.54799302 -68.17921996 147.56484783 C-72.54494234 143.27087789 -76.88266019 138.94999715 -81.19894624 134.60633671 C-83.77082323 132.01843611 -86.35131906 129.4411478 -88.95836639 126.88863754 C-91.86721141 124.03744327 -94.71536043 121.13203008 -97.56152344 118.21826172 C-98.42164032 117.38962616 -99.2817572 116.5609906 -100.16793823 115.70724487 C-104.62633452 111.03798673 -106.61476881 107.52274651 -107.05480957 101 C-106.5201085 93.0740989 -103.11858816 89.13540768 -97.56152344 83.78173828 C-96.66396332 82.86285828 -95.7664032 81.94397827 -94.84164429 80.99725342 C-92.39737636 78.49810573 -89.91162126 76.0446761 -87.41384411 73.59915018 C-84.79521509 71.02369938 -82.21198274 68.41312458 -79.62310791 65.80783081 C-75.27254518 61.44099369 -70.89414751 57.10367433 -66.49804688 52.78271484 C-61.4279725 47.79855949 -56.40608615 42.76951053 -51.40715003 37.71408284 C-46.5801092 32.83484054 -41.71966025 27.99022172 -36.84363556 23.15996933 C-34.77673371 21.11118914 -32.72228507 19.05103218 -30.67717743 16.98050308 C-27.8156483 14.08691189 -24.90703093 11.24561334 -21.99121094 8.40673828 C-20.73747177 7.12127609 -20.73747177 7.12127609 -19.45840454 5.80984497 C-13.36319213 -0.00810845 -8.38529371 -1.55265824 0 0 Z " fill="#FFFFFF" transform="translate(271,229)"/>
</svg>
